<?xml version="1.0" standalone="no"?>
<!DOCTYPE svg PUBLIC "-//W3C//DTD SVG 20010904//EN"
 "http://www.w3.org/TR/2001/REC-SVG-20010904/DTD/svg10.dtd">
<svg version="1.0" xmlns="http://www.w3.org/2000/svg"
 width="600.000000pt" height="600.000000pt" viewBox="0 0 600.000000 600.000000"
 preserveAspectRatio="xMidYMid meet">

<g transform="translate(0.000000,600.000000) scale(0.100000,-0.100000)"
fill="#000000" stroke="none">
<path d="M0 5805 c0 -124 4 -195 10 -195 6 0 173 36 372 80 272 61 363 78 369
69 4 -7 267 -651 585 -1431 318 -780 581 -1415 585 -1411 4 5 224 557 489
1228 266 671 484 1221 485 1222 1 2 312 -586 691 -1306 379 -720 692 -1306
696 -1303 3 4 248 682 544 1507 295 825 538 1501 539 1503 2 2 143 -74 314
-168 171 -93 313 -170 316 -170 3 0 5 128 5 285 l0 285 -3000 0 -3000 0 0
-195z"/>
<path d="M1 1948 l-1 -1948 762 0 c724 0 760 1 746 18 -9 9 -345 872 -748
1917 -403 1045 -738 1914 -745 1930 -11 25 -14 -299 -14 -1917z"/>
<path d="M5246 1913 c-412 -1028 -755 -1878 -762 -1890 l-14 -23 765 0 765 0
0 1890 c0 1040 -1 1890 -3 1890 -2 0 -340 -840 -751 -1867z"/>
<path d="M2910 2259 c-328 -656 -1127 -2228 -1138 -2241 -14 -17 45 -18 1227
-18 l1242 0 -20 28 c-10 15 -295 533 -632 1152 -336 619 -618 1133 -625 1144
-11 17 -17 10 -54 -65z"/>
</g>
</svg>
